<svg xmlns="http://www.w3.org/2000/svg" viewBox="0 0 720 400" width="720" height="400">
<defs>
  <filter id="sd" x="-15%" y="-15%" width="130%" height="130%"><feDropShadow dx="0" dy="10" stdDeviation="14" flood-color="#0f172a" flood-opacity=".22"/></filter>
</defs>
<rect x="12" y="12" width="696" height="376" rx="14" fill="#334155" filter="url(#sd)"/>
<rect x="20" y="20" width="680" height="360" rx="10" fill="#ffffff"/>
<rect x="20" y="20" width="680" height="44" rx="10" fill="#0f172a"/>
<rect x="20" y="20" width="5" height="44" rx="10 0 0 10" fill="#0891b2"/>
<circle cx="42" cy="42" r="4.5" fill="#ef4444"/><circle cx="58" cy="42" r="4.5" fill="#eab308"/><circle cx="74" cy="42" r="4.5" fill="#22c55e"/>
<text x="96" y="47" fill="#f1f5f9" font-family="Segoe UI,system-ui,sans-serif" font-size="14" font-weight="600">Access — Event log</text>
<g transform="translate(28 78)">
<rect x="0" y="0" width="120" height="11" rx="3" fill="#e2e8f0"/>

<rect x="0" y="20" width="664" height="32" rx="6" fill="#fff" stroke="#e2e8f0"/>
<text x="12" y="40" fill="#64748b" font-family="monospace" font-size="11">14:1002</text>
<rect x="120" y="30" width="200" height="10" rx="3" fill="#e2e8f0"/>
<rect x="560" y="28" width="92" height="18" rx="9" fill="#dcfce7"/>
<text x="582" y="41" fill="#0f172a" font-family="Segoe UI,sans-serif" font-size="9" font-weight="600">Granted</text>
<rect x="0" y="56" width="664" height="32" rx="6" fill="#f8fafc" stroke="#e2e8f0"/>
<text x="12" y="76" fill="#64748b" font-family="monospace" font-size="11">14:1102</text>
<rect x="120" y="66" width="200" height="10" rx="3" fill="#e2e8f0"/>
<rect x="560" y="64" width="92" height="18" rx="9" fill="#fee2e2"/>
<text x="582" y="77" fill="#0f172a" font-family="Segoe UI,sans-serif" font-size="9" font-weight="600">Denied</text>
<rect x="0" y="92" width="664" height="32" rx="6" fill="#fff" stroke="#e2e8f0"/>
<text x="12" y="112" fill="#64748b" font-family="monospace" font-size="11">14:1202</text>
<rect x="120" y="102" width="200" height="10" rx="3" fill="#e2e8f0"/>
<rect x="560" y="100" width="92" height="18" rx="9" fill="#fee2e2"/>
<text x="582" y="113" fill="#0f172a" font-family="Segoe UI,sans-serif" font-size="9" font-weight="600">Denied</text>
<rect x="0" y="128" width="664" height="32" rx="6" fill="#f8fafc" stroke="#e2e8f0"/>
<text x="12" y="148" fill="#64748b" font-family="monospace" font-size="11">14:1302</text>
<rect x="120" y="138" width="200" height="10" rx="3" fill="#e2e8f0"/>
<rect x="560" y="136" width="92" height="18" rx="9" fill="#dcfce7"/>
<text x="582" y="149" fill="#0f172a" font-family="Segoe UI,sans-serif" font-size="9" font-weight="600">Granted</text>
<rect x="0" y="164" width="664" height="32" rx="6" fill="#fff" stroke="#e2e8f0"/>
<text x="12" y="184" fill="#64748b" font-family="monospace" font-size="11">14:1402</text>
<rect x="120" y="174" width="200" height="10" rx="3" fill="#e2e8f0"/>
<rect x="560" y="172" width="92" height="18" rx="9" fill="#fee2e2"/>
<text x="582" y="185" fill="#0f172a" font-family="Segoe UI,sans-serif" font-size="9" font-weight="600">Denied</text>
<rect x="0" y="200" width="664" height="32" rx="6" fill="#f8fafc" stroke="#e2e8f0"/>
<text x="12" y="220" fill="#64748b" font-family="monospace" font-size="11">14:1502</text>
<rect x="120" y="210" width="200" height="10" rx="3" fill="#e2e8f0"/>
<rect x="560" y="208" width="92" height="18" rx="9" fill="#fee2e2"/>
<text x="582" y="221" fill="#0f172a" font-family="Segoe UI,sans-serif" font-size="9" font-weight="600">Denied</text>
<rect x="0" y="236" width="664" height="32" rx="6" fill="#fff" stroke="#e2e8f0"/>
<text x="12" y="256" fill="#64748b" font-family="monospace" font-size="11">14:1602</text>
<rect x="120" y="246" width="200" height="10" rx="3" fill="#e2e8f0"/>
<rect x="560" y="244" width="92" height="18" rx="9" fill="#dcfce7"/>
<text x="582" y="257" fill="#0f172a" font-family="Segoe UI,sans-serif" font-size="9" font-weight="600">Granted</text>
</g>
</svg>