<svg xmlns="http://www.w3.org/2000/svg" viewBox="0 0 720 400" width="720" height="400">
<defs>
  <filter id="sd" x="-15%" y="-15%" width="130%" height="130%"><feDropShadow dx="0" dy="10" stdDeviation="14" flood-color="#0f172a" flood-opacity=".22"/></filter>
</defs>
<rect x="12" y="12" width="696" height="376" rx="14" fill="#334155" filter="url(#sd)"/>
<rect x="20" y="20" width="680" height="360" rx="10" fill="#ffffff"/>
<rect x="20" y="20" width="680" height="44" rx="10" fill="#0f172a"/>
<rect x="20" y="20" width="5" height="44" rx="10 0 0 10" fill="#0891b2"/>
<circle cx="42" cy="42" r="4.5" fill="#ef4444"/><circle cx="58" cy="42" r="4.5" fill="#eab308"/><circle cx="74" cy="42" r="4.5" fill="#22c55e"/>
<text x="96" y="47" fill="#f1f5f9" font-family="Segoe UI,system-ui,sans-serif" font-size="14" font-weight="600">Access — Zones</text>
<g transform="translate(28 78)">
<rect x="0" y="0" width="664" height="200" rx="8" fill="#e2e8f0"/>
<rect x="40" y="40" width="200" height="120" rx="6" fill="#bbf7d0" stroke="#22c55e" stroke-width="2"/>
<text x="100" y="108" fill="#166534" font-family="Segoe UI,sans-serif" font-size="12" font-weight="600">Lobby</text>
<rect x="260" y="40" width="200" height="120" rx="6" fill="#fecaca" stroke="#ef4444" stroke-width="2"/>
<text x="310" y="108" fill="#991b1b" font-family="Segoe UI,sans-serif" font-size="12" font-weight="600">Server room</text>
<rect x="480" y="40" width="160" height="120" rx="6" fill="#fef9c3" stroke="#eab308"/>
<text x="520" y="108" fill="#854d0e" font-family="Segoe UI,sans-serif" font-size="11">Warehouse</text>
<rect x="0" y="216" width="664" height="10" rx="3" fill="#e2e8f0"/>
<rect x="0" y="240" width="664" height="36" rx="6" fill="#0f172a"/>
<text x="12" y="262" fill="#94a3b8" font-family="Segoe UI,sans-serif" font-size="11">Last sync: 12:04 — Controller online</text>
</g>
</svg>