<svg xmlns="http://www.w3.org/2000/svg" viewBox="0 0 720 400" width="720" height="400">
<defs>
  <filter id="sd" x="-15%" y="-15%" width="130%" height="130%"><feDropShadow dx="0" dy="10" stdDeviation="14" flood-color="#0f172a" flood-opacity=".22"/></filter>
</defs>
<rect x="12" y="12" width="696" height="376" rx="14" fill="#334155" filter="url(#sd)"/>
<rect x="20" y="20" width="680" height="360" rx="10" fill="#ffffff"/>
<rect x="20" y="20" width="680" height="44" rx="10" fill="#0f172a"/>
<rect x="20" y="20" width="5" height="44" rx="10 0 0 10" fill="#ea580c"/>
<circle cx="42" cy="42" r="4.5" fill="#ef4444"/><circle cx="58" cy="42" r="4.5" fill="#eab308"/><circle cx="74" cy="42" r="4.5" fill="#22c55e"/>
<text x="96" y="47" fill="#f1f5f9" font-family="Segoe UI,system-ui,sans-serif" font-size="14" font-weight="600">Archive — Search</text>
<g transform="translate(28 78)">
<rect x="0" y="0" width="664" height="44" rx="8" fill="#f1f5f9" stroke="#e2e8f0"/>
<rect x="12" y="10" width="520" height="24" rx="6" fill="#fff" stroke="#cbd5e1"/>
<text x="24" y="26" fill="#64748b" font-family="Segoe UI,sans-serif" font-size="12">Search documents…</text>
<rect x="548" y="10" width="100" height="24" rx="6" fill="#ea580c"/>
<text x="572" y="26" fill="#fff" font-family="Segoe UI,sans-serif" font-size="11" font-weight="600">Search</text>

<rect x="0" y="56" width="664" height="36" rx="6" fill="#fff" stroke="#e2e8f0"/>
<rect x="12" y="66" width="28" height="16" rx="3" fill="#fed7aa"/>
<rect x="52" y="66" width="220" height="10" rx="3" fill="#e2e8f0"/>
<rect x="400" y="66" width="80" height="10" rx="3" fill="#e2e8f0"/>
<rect x="520" y="68" width="56" height="10" rx="3" fill="#dcfce7"/>
<rect x="0" y="96" width="664" height="36" rx="6" fill="#fff" stroke="#e2e8f0"/>
<rect x="12" y="106" width="28" height="16" rx="3" fill="#fed7aa"/>
<rect x="52" y="106" width="220" height="10" rx="3" fill="#e2e8f0"/>
<rect x="400" y="106" width="80" height="10" rx="3" fill="#e2e8f0"/>
<rect x="520" y="108" width="56" height="10" rx="3" fill="#dcfce7"/>
<rect x="0" y="136" width="664" height="36" rx="6" fill="#fff" stroke="#e2e8f0"/>
<rect x="12" y="146" width="28" height="16" rx="3" fill="#fed7aa"/>
<rect x="52" y="146" width="220" height="10" rx="3" fill="#e2e8f0"/>
<rect x="400" y="146" width="80" height="10" rx="3" fill="#e2e8f0"/>
<rect x="520" y="148" width="56" height="10" rx="3" fill="#dcfce7"/>
<rect x="0" y="176" width="664" height="36" rx="6" fill="#fff" stroke="#e2e8f0"/>
<rect x="12" y="186" width="28" height="16" rx="3" fill="#fed7aa"/>
<rect x="52" y="186" width="220" height="10" rx="3" fill="#e2e8f0"/>
<rect x="400" y="186" width="80" height="10" rx="3" fill="#e2e8f0"/>
<rect x="520" y="188" width="56" height="10" rx="3" fill="#dcfce7"/>
<rect x="0" y="216" width="664" height="36" rx="6" fill="#fff" stroke="#e2e8f0"/>
<rect x="12" y="226" width="28" height="16" rx="3" fill="#fed7aa"/>
<rect x="52" y="226" width="220" height="10" rx="3" fill="#e2e8f0"/>
<rect x="400" y="226" width="80" height="10" rx="3" fill="#e2e8f0"/>
<rect x="520" y="228" width="56" height="10" rx="3" fill="#dcfce7"/>
<rect x="0" y="256" width="664" height="36" rx="6" fill="#fff" stroke="#e2e8f0"/>
<rect x="12" y="266" width="28" height="16" rx="3" fill="#fed7aa"/>
<rect x="52" y="266" width="220" height="10" rx="3" fill="#e2e8f0"/>
<rect x="400" y="266" width="80" height="10" rx="3" fill="#e2e8f0"/>
<rect x="520" y="268" width="56" height="10" rx="3" fill="#dcfce7"/>
</g>
</svg>