<svg xmlns="http://www.w3.org/2000/svg" viewBox="0 0 720 400" width="720" height="400">
<defs>
  <filter id="sd" x="-15%" y="-15%" width="130%" height="130%"><feDropShadow dx="0" dy="10" stdDeviation="14" flood-color="#0f172a" flood-opacity=".22"/></filter>
</defs>
<rect x="12" y="12" width="696" height="376" rx="14" fill="#334155" filter="url(#sd)"/>
<rect x="20" y="20" width="680" height="360" rx="10" fill="#ffffff"/>
<rect x="20" y="20" width="680" height="44" rx="10" fill="#0f172a"/>
<rect x="20" y="20" width="5" height="44" rx="10 0 0 10" fill="#ea580c"/>
<circle cx="42" cy="42" r="4.5" fill="#ef4444"/><circle cx="58" cy="42" r="4.5" fill="#eab308"/><circle cx="74" cy="42" r="4.5" fill="#22c55e"/>
<text x="96" y="47" fill="#f1f5f9" font-family="Segoe UI,system-ui,sans-serif" font-size="14" font-weight="600">Archive — Viewer</text>
<g transform="translate(28 78)">
<rect x="0" y="0" width="200" height="260" rx="8" fill="#f8fafc" stroke="#e2e8f0"/>
<rect x="12" y="12" width="160" height="10" rx="3" fill="#e2e8f0"/><rect x="12" y="50" width="160" height="10" rx="3" fill="#e2e8f0"/><rect x="12" y="88" width="160" height="10" rx="3" fill="#e2e8f0"/><rect x="12" y="126" width="160" height="10" rx="3" fill="#e2e8f0"/><rect x="12" y="164" width="160" height="10" rx="3" fill="#e2e8f0"/><rect x="12" y="202" width="160" height="10" rx="3" fill="#e2e8f0"/>
<rect x="216" y="0" width="448" height="260" rx="8" fill="#fff" stroke="#e2e8f0"/>
<rect x="232" y="16" width="400" height="200" rx="4" fill="#f1f5f9"/>
<rect x="248" y="32" width="360" height="10" rx="3" fill="#e2e8f0"/>
<rect x="248" y="52" width="300" height="10" rx="3" fill="#e2e8f0"/>
<rect x="248" y="72" width="360" height="8" rx="3" fill="#e2e8f0"/>
<rect x="248" y="88" width="360" height="8" rx="3" fill="#e2e8f0"/>
<rect x="248" y="104" width="280" height="8" rx="3" fill="#e2e8f0"/>
<rect x="232" y="224" width="120" height="28" rx="6" fill="#ea580c"/>
<text x="252" y="243" fill="#fff" font-family="Segoe UI,sans-serif" font-size="11" font-weight="600">Download</text>
</g>
</svg>