<svg xmlns="http://www.w3.org/2000/svg" viewBox="0 0 720 400" width="720" height="400">
<defs>
  <filter id="sd" x="-15%" y="-15%" width="130%" height="130%"><feDropShadow dx="0" dy="10" stdDeviation="14" flood-color="#0f172a" flood-opacity=".22"/></filter>
</defs>
<rect x="12" y="12" width="696" height="376" rx="14" fill="#334155" filter="url(#sd)"/>
<rect x="20" y="20" width="680" height="360" rx="10" fill="#ffffff"/>
<rect x="20" y="20" width="680" height="44" rx="10" fill="#0f172a"/>
<rect x="20" y="20" width="5" height="44" rx="10 0 0 10" fill="#9333ea"/>
<circle cx="42" cy="42" r="4.5" fill="#ef4444"/><circle cx="58" cy="42" r="4.5" fill="#eab308"/><circle cx="74" cy="42" r="4.5" fill="#22c55e"/>
<text x="96" y="47" fill="#f1f5f9" font-family="Segoe UI,system-ui,sans-serif" font-size="14" font-weight="600">Attendance — Week view</text>
<g transform="translate(28 78)">
<rect x="0" y="0" width="140" height="11" rx="3" fill="#64748b"/>
<rect x="520" y="0" width="120" height="36" rx="3" fill="#9333ea"/>
<text x="548" y="24" fill="#fff" font-family="Segoe UI,sans-serif" font-size="12" font-weight="600">Clock in</text>

<text x="12" y="58" fill="#64748b" font-family="Segoe UI,sans-serif" font-size="11">Sun</text>

<rect x="8" y="68" width="84" height="38" rx="6" fill="#dcfce7" stroke="#e2e8f0"/>
<rect x="8" y="112" width="84" height="38" rx="6" fill="#dcfce7" stroke="#e2e8f0"/>
<rect x="8" y="156" width="84" height="38" rx="6" fill="#dcfce7" stroke="#e2e8f0"/>
<rect x="8" y="200" width="84" height="38" rx="6" fill="#f1f5f9" stroke="#e2e8f0"/>
<text x="104" y="58" fill="#64748b" font-family="Segoe UI,sans-serif" font-size="11">Mon</text>

<rect x="100" y="68" width="84" height="38" rx="6" fill="#dcfce7" stroke="#e2e8f0"/>
<rect x="100" y="112" width="84" height="38" rx="6" fill="#dcfce7" stroke="#e2e8f0"/>
<rect x="100" y="156" width="84" height="38" rx="6" fill="#dcfce7" stroke="#e2e8f0"/>
<rect x="100" y="200" width="84" height="38" rx="6" fill="#f1f5f9" stroke="#e2e8f0"/>
<text x="196" y="58" fill="#64748b" font-family="Segoe UI,sans-serif" font-size="11">Tue</text>

<rect x="192" y="68" width="84" height="38" rx="6" fill="#dcfce7" stroke="#e2e8f0"/>
<rect x="192" y="112" width="84" height="38" rx="6" fill="#dcfce7" stroke="#e2e8f0"/>
<rect x="192" y="156" width="84" height="38" rx="6" fill="#dcfce7" stroke="#e2e8f0"/>
<rect x="192" y="200" width="84" height="38" rx="6" fill="#f1f5f9" stroke="#e2e8f0"/>
<text x="288" y="58" fill="#64748b" font-family="Segoe UI,sans-serif" font-size="11">Wed</text>

<rect x="284" y="68" width="84" height="38" rx="6" fill="#dcfce7" stroke="#e2e8f0"/>
<rect x="284" y="112" width="84" height="38" rx="6" fill="#dcfce7" stroke="#e2e8f0"/>
<rect x="284" y="156" width="84" height="38" rx="6" fill="#dcfce7" stroke="#e2e8f0"/>
<rect x="284" y="200" width="84" height="38" rx="6" fill="#f1f5f9" stroke="#e2e8f0"/>
<text x="380" y="58" fill="#64748b" font-family="Segoe UI,sans-serif" font-size="11">Thu</text>

<rect x="376" y="68" width="84" height="38" rx="6" fill="#dcfce7" stroke="#e2e8f0"/>
<rect x="376" y="112" width="84" height="38" rx="6" fill="#dcfce7" stroke="#e2e8f0"/>
<rect x="376" y="156" width="84" height="38" rx="6" fill="#dcfce7" stroke="#e2e8f0"/>
<rect x="376" y="200" width="84" height="38" rx="6" fill="#f1f5f9" stroke="#e2e8f0"/>
<text x="472" y="58" fill="#64748b" font-family="Segoe UI,sans-serif" font-size="11">Fri</text>

<rect x="468" y="68" width="84" height="38" rx="6" fill="#f1f5f9" stroke="#e2e8f0"/>
<rect x="468" y="112" width="84" height="38" rx="6" fill="#f1f5f9" stroke="#e2e8f0"/>
<rect x="468" y="156" width="84" height="38" rx="6" fill="#f1f5f9" stroke="#e2e8f0"/>
<rect x="468" y="200" width="84" height="38" rx="6" fill="#f1f5f9" stroke="#e2e8f0"/>
<text x="564" y="58" fill="#64748b" font-family="Segoe UI,sans-serif" font-size="11">Sat</text>

<rect x="560" y="68" width="84" height="38" rx="6" fill="#f1f5f9" stroke="#e2e8f0"/>
<rect x="560" y="112" width="84" height="38" rx="6" fill="#f1f5f9" stroke="#e2e8f0"/>
<rect x="560" y="156" width="84" height="38" rx="6" fill="#f1f5f9" stroke="#e2e8f0"/>
<rect x="560" y="200" width="84" height="38" rx="6" fill="#f1f5f9" stroke="#e2e8f0"/>
</g>
</svg>