<svg xmlns="http://www.w3.org/2000/svg" viewBox="0 0 720 400" width="720" height="400">
<defs>
  <filter id="sd" x="-15%" y="-15%" width="130%" height="130%"><feDropShadow dx="0" dy="10" stdDeviation="14" flood-color="#0f172a" flood-opacity=".22"/></filter>
</defs>
<rect x="12" y="12" width="696" height="376" rx="14" fill="#334155" filter="url(#sd)"/>
<rect x="20" y="20" width="680" height="360" rx="10" fill="#ffffff"/>
<rect x="20" y="20" width="680" height="44" rx="10" fill="#0f172a"/>
<rect x="20" y="20" width="5" height="44" rx="10 0 0 10" fill="#9333ea"/>
<circle cx="42" cy="42" r="4.5" fill="#ef4444"/><circle cx="58" cy="42" r="4.5" fill="#eab308"/><circle cx="74" cy="42" r="4.5" fill="#22c55e"/>
<text x="96" y="47" fill="#f1f5f9" font-family="Segoe UI,system-ui,sans-serif" font-size="14" font-weight="600">Attendance — Day timeline</text>
<g transform="translate(28 78)">
<rect x="0" y="0" width="200" height="11" rx="3" fill="#e2e8f0"/>
<rect x="0" y="28" width="664" height="8" rx="4" fill="#e2e8f0"/>

<text x="0" y="48" fill="#94a3b8" font-family="Segoe UI,sans-serif" font-size="11">8:00</text>
<line x1="48" y1="44" x2="664" y2="44" stroke="#f1f5f9" stroke-width="1"/>
<text x="0" y="100" fill="#94a3b8" font-family="Segoe UI,sans-serif" font-size="11">9:00</text>
<line x1="48" y1="96" x2="664" y2="96" stroke="#f1f5f9" stroke-width="1"/>
<text x="0" y="152" fill="#94a3b8" font-family="Segoe UI,sans-serif" font-size="11">10:00</text>
<line x1="48" y1="148" x2="664" y2="148" stroke="#f1f5f9" stroke-width="1"/>
<text x="0" y="204" fill="#94a3b8" font-family="Segoe UI,sans-serif" font-size="11">11:00</text>
<line x1="48" y1="200" x2="664" y2="200" stroke="#f1f5f9" stroke-width="1"/>
<text x="0" y="256" fill="#94a3b8" font-family="Segoe UI,sans-serif" font-size="11">12:00</text>
<line x1="48" y1="252" x2="664" y2="252" stroke="#f1f5f9" stroke-width="1"/>
<text x="0" y="308" fill="#94a3b8" font-family="Segoe UI,sans-serif" font-size="11">13:00</text>
<line x1="48" y1="304" x2="664" y2="304" stroke="#f1f5f9" stroke-width="1"/>
<text x="0" y="360" fill="#94a3b8" font-family="Segoe UI,sans-serif" font-size="11">14:00</text>
<line x1="48" y1="356" x2="664" y2="356" stroke="#f1f5f9" stroke-width="1"/>
<text x="0" y="412" fill="#94a3b8" font-family="Segoe UI,sans-serif" font-size="11">15:00</text>
<line x1="48" y1="408" x2="664" y2="408" stroke="#f1f5f9" stroke-width="1"/>
<rect x="48" y="96" width="6" height="72" rx="3" fill="#9333ea"/>
<rect x="62" y="108" width="200" height="14" rx="4" fill="#bbf7d0" stroke="#9333ea"/>
<text x="70" y="119" fill="#065f46" font-family="Segoe UI,sans-serif" font-size="11">Check-in 08:12</text>
<rect x="48" y="200" width="6" height="52" rx="3" fill="#94a3b8"/>
<rect x="62" y="212" width="160" height="12" rx="3" fill="#e2e8f0"/>
</g>
</svg>