<svg xmlns="http://www.w3.org/2000/svg" viewBox="0 0 720 400" width="720" height="400">
<defs>
  <filter id="sd" x="-15%" y="-15%" width="130%" height="130%"><feDropShadow dx="0" dy="10" stdDeviation="14" flood-color="#0f172a" flood-opacity=".22"/></filter>
</defs>
<rect x="12" y="12" width="696" height="376" rx="14" fill="#334155" filter="url(#sd)"/>
<rect x="20" y="20" width="680" height="360" rx="10" fill="#ffffff"/>
<rect x="20" y="20" width="680" height="44" rx="10" fill="#0f172a"/>
<rect x="20" y="20" width="5" height="44" rx="10 0 0 10" fill="#4f46e5"/>
<circle cx="42" cy="42" r="4.5" fill="#ef4444"/><circle cx="58" cy="42" r="4.5" fill="#eab308"/><circle cx="74" cy="42" r="4.5" fill="#22c55e"/>
<text x="96" y="47" fill="#f1f5f9" font-family="Segoe UI,system-ui,sans-serif" font-size="14" font-weight="600">Biometric — Verify</text>
<g transform="translate(28 78)">
<rect x="0" y="0" width="400" height="280" rx="10" fill="#0f172a"/>
<ellipse cx="200" cy="130" rx="120" ry="100" fill="none" stroke="#475569" stroke-width="2"/>
<rect x="120" y="90" width="160" height="120" rx="8" fill="#1e293b" stroke="#4f46e5" stroke-width="2"/>
<text x="150" y="155" fill="#94a3b8" font-family="Segoe UI,sans-serif" font-size="11">Face preview</text>
<rect x="420" y="0" width="244" height="280" rx="10" fill="#fff" stroke="#e2e8f0"/>
<text x="432" y="28" fill="#64748b" font-family="Segoe UI,sans-serif" font-size="12">Match score</text>
<text x="432" y="64" fill="#4f46e5" font-family="Segoe UI,sans-serif" font-size="28" font-weight="800">99.2%</text>
<rect x="432" y="90" width="200" height="10" rx="3" fill="#e2e8f0"/>
<rect x="432" y="110" width="160" height="8" rx="3" fill="#e2e8f0"/>
<rect x="432" y="200" width="200" height="44" rx="8" fill="#22c55e"/>
<text x="480" y="228" fill="#fff" font-family="Segoe UI,sans-serif" font-size="13" font-weight="600">Access granted</text>
</g>
</svg>