<svg xmlns="http://www.w3.org/2000/svg" viewBox="0 0 720 400" width="720" height="400">
<defs>
  <filter id="sd" x="-15%" y="-15%" width="130%" height="130%"><feDropShadow dx="0" dy="10" stdDeviation="14" flood-color="#0f172a" flood-opacity=".22"/></filter>
</defs>
<rect x="12" y="12" width="696" height="376" rx="14" fill="#334155" filter="url(#sd)"/>
<rect x="20" y="20" width="680" height="360" rx="10" fill="#ffffff"/>
<rect x="20" y="20" width="680" height="44" rx="10" fill="#0f172a"/>
<rect x="20" y="20" width="5" height="44" rx="10 0 0 10" fill="#4f46e5"/>
<circle cx="42" cy="42" r="4.5" fill="#ef4444"/><circle cx="58" cy="42" r="4.5" fill="#eab308"/><circle cx="74" cy="42" r="4.5" fill="#22c55e"/>
<text x="96" y="47" fill="#f1f5f9" font-family="Segoe UI,system-ui,sans-serif" font-size="14" font-weight="600">Biometric — Enrollment</text>
<g transform="translate(28 78)">
<rect x="180" y="10" width="300" height="280" rx="16" fill="#f8fafc" stroke="#e2e8f0"/>
<circle cx="330" cy="120" r="56" fill="none" stroke="#4f46e5" stroke-width="3" opacity=".5"/>
<circle cx="330" cy="120" r="42" fill="none" stroke="#4f46e5" stroke-width="2" opacity=".7"/>
<circle cx="330" cy="120" r="28" fill="#4f46e5" opacity=".25"/>
<path d="M300 150 Q330 175 360 150" fill="none" stroke="#64748b" stroke-width="4" stroke-linecap="round"/>
<text x="250" y="220" fill="#64748b" font-family="Segoe UI,sans-serif" font-size="12">Place finger on sensor</text>
<rect x="260" y="240" width="140" height="36" rx="8" fill="#4f46e5"/>
<text x="285" y="263" fill="#fff" font-family="Segoe UI,sans-serif" font-size="12" font-weight="600">Capture</text>
</g>
</svg>