<svg xmlns="http://www.w3.org/2000/svg" viewBox="0 0 720 400" width="720" height="400">
<defs>
  <filter id="sd" x="-15%" y="-15%" width="130%" height="130%"><feDropShadow dx="0" dy="10" stdDeviation="14" flood-color="#0f172a" flood-opacity=".22"/></filter>
</defs>
<rect x="12" y="12" width="696" height="376" rx="14" fill="#334155" filter="url(#sd)"/>
<rect x="20" y="20" width="680" height="360" rx="10" fill="#ffffff"/>
<rect x="20" y="20" width="680" height="44" rx="10" fill="#0f172a"/>
<rect x="20" y="20" width="5" height="44" rx="10 0 0 10" fill="#0d9488"/>
<circle cx="42" cy="42" r="4.5" fill="#ef4444"/><circle cx="58" cy="42" r="4.5" fill="#eab308"/><circle cx="74" cy="42" r="4.5" fill="#22c55e"/>
<text x="96" y="47" fill="#f1f5f9" font-family="Segoe UI,system-ui,sans-serif" font-size="14" font-weight="600">Correspondence — Thread</text>
<g transform="translate(28 78)">
<rect x="0" y="0" width="320" height="11" rx="3" fill="#e2e8f0"/>
<rect x="0" y="28" width="480" height="72" rx="10" fill="#f1f5f9" stroke="#e2e8f0"/>
<rect x="16" y="44" width="360" height="10" rx="3" fill="#e2e8f0"/>
<rect x="16" y="62" width="280" height="8" rx="3" fill="#e2e8f0"/>
<rect x="500" y="28" width="164" height="72" rx="10" fill="#0d9488" opacity=".15" stroke="#0d9488"/>
<rect x="512" y="48" width="130" height="10" rx="3" fill="#0f172a"/>
<rect x="0" y="116" width="664" height="72" rx="10" fill="#fff" stroke="#e2e8f0"/>
<rect x="16" y="132" width="400" height="10" rx="3" fill="#e2e8f0"/>
<rect x="16" y="154" width="320" height="8" rx="3" fill="#e2e8f0"/>
<rect x="0" y="200" width="664" height="56" rx="10" fill="#fff" stroke="#e2e8f0"/>
<rect x="12" y="212" width="640" height="32" rx="6" fill="#f8fafc" stroke="#cbd5e1"/>
<text x="24" y="232" fill="#94a3b8" font-family="Segoe UI,sans-serif" font-size="11">Reply…</text>
</g>
</svg>