<svg xmlns="http://www.w3.org/2000/svg" viewBox="0 0 720 400" width="720" height="400">
<defs>
  <filter id="sd" x="-15%" y="-15%" width="130%" height="130%"><feDropShadow dx="0" dy="10" stdDeviation="14" flood-color="#0f172a" flood-opacity=".22"/></filter>
</defs>
<rect x="12" y="12" width="696" height="376" rx="14" fill="#334155" filter="url(#sd)"/>
<rect x="20" y="20" width="680" height="360" rx="10" fill="#ffffff"/>
<rect x="20" y="20" width="680" height="44" rx="10" fill="#0f172a"/>
<rect x="20" y="20" width="5" height="44" rx="10 0 0 10" fill="#0d9488"/>
<circle cx="42" cy="42" r="4.5" fill="#ef4444"/><circle cx="58" cy="42" r="4.5" fill="#eab308"/><circle cx="74" cy="42" r="4.5" fill="#22c55e"/>
<text x="96" y="47" fill="#f1f5f9" font-family="Segoe UI,system-ui,sans-serif" font-size="14" font-weight="600">Correspondence — Inbox</text>
<g transform="translate(28 78)">
<rect x="0" y="0" width="80" height="10" rx="3" fill="#e2e8f0"/>

<rect x="0" y="18" width="664" height="38" rx="6" fill="#eff6ff" stroke="#e2e8f0"/>
<rect x="12" y="30" width="36" height="14" rx="7" fill="#0d9488" opacity="0.9"/>
<text x="24" y="40" fill="#fff" font-family="Segoe UI,sans-serif" font-size="10" font-weight="700">!</text>
<rect x="58" y="26" width="280" height="10" rx="3" fill="#e2e8f0"/>
<rect x="58" y="40" width="200" height="8" rx="3" fill="#cbd5e1"/>
<rect x="580" y="30" width="70" height="10" rx="3" fill="#e2e8f0"/>
<rect x="0" y="60" width="664" height="38" rx="6" fill="#fff" stroke="#e2e8f0"/>
<rect x="12" y="72" width="36" height="14" rx="7" fill="#0d9488" opacity="0.9"/>
<text x="24" y="82" fill="#fff" font-family="Segoe UI,sans-serif" font-size="10" font-weight="700">!</text>
<rect x="58" y="68" width="280" height="10" rx="3" fill="#e2e8f0"/>
<rect x="58" y="82" width="200" height="8" rx="3" fill="#cbd5e1"/>
<rect x="580" y="72" width="70" height="10" rx="3" fill="#e2e8f0"/>
<rect x="0" y="102" width="664" height="38" rx="6" fill="#fff" stroke="#e2e8f0"/>
<rect x="12" y="114" width="36" height="14" rx="7" fill="#0d9488" opacity="0.2"/>
<text x="24" y="124" fill="#fff" font-family="Segoe UI,sans-serif" font-size="10" font-weight="700"></text>
<rect x="58" y="110" width="280" height="10" rx="3" fill="#e2e8f0"/>
<rect x="58" y="124" width="200" height="8" rx="3" fill="#cbd5e1"/>
<rect x="580" y="114" width="70" height="10" rx="3" fill="#e2e8f0"/>
<rect x="0" y="144" width="664" height="38" rx="6" fill="#fff" stroke="#e2e8f0"/>
<rect x="12" y="156" width="36" height="14" rx="7" fill="#0d9488" opacity="0.2"/>
<text x="24" y="166" fill="#fff" font-family="Segoe UI,sans-serif" font-size="10" font-weight="700"></text>
<rect x="58" y="152" width="280" height="10" rx="3" fill="#e2e8f0"/>
<rect x="58" y="166" width="200" height="8" rx="3" fill="#cbd5e1"/>
<rect x="580" y="156" width="70" height="10" rx="3" fill="#e2e8f0"/>
<rect x="0" y="186" width="664" height="38" rx="6" fill="#fff" stroke="#e2e8f0"/>
<rect x="12" y="198" width="36" height="14" rx="7" fill="#0d9488" opacity="0.2"/>
<text x="24" y="208" fill="#fff" font-family="Segoe UI,sans-serif" font-size="10" font-weight="700"></text>
<rect x="58" y="194" width="280" height="10" rx="3" fill="#e2e8f0"/>
<rect x="58" y="208" width="200" height="8" rx="3" fill="#cbd5e1"/>
<rect x="580" y="198" width="70" height="10" rx="3" fill="#e2e8f0"/>
<rect x="0" y="228" width="664" height="38" rx="6" fill="#fff" stroke="#e2e8f0"/>
<rect x="12" y="240" width="36" height="14" rx="7" fill="#0d9488" opacity="0.2"/>
<text x="24" y="250" fill="#fff" font-family="Segoe UI,sans-serif" font-size="10" font-weight="700"></text>
<rect x="58" y="236" width="280" height="10" rx="3" fill="#e2e8f0"/>
<rect x="58" y="250" width="200" height="8" rx="3" fill="#cbd5e1"/>
<rect x="580" y="240" width="70" height="10" rx="3" fill="#e2e8f0"/>
</g>
</svg>