<svg xmlns="http://www.w3.org/2000/svg" viewBox="0 0 720 400" width="720" height="400">
<defs>
  <filter id="sd" x="-15%" y="-15%" width="130%" height="130%"><feDropShadow dx="0" dy="10" stdDeviation="14" flood-color="#0f172a" flood-opacity=".22"/></filter>
</defs>
<rect x="12" y="12" width="696" height="376" rx="14" fill="#334155" filter="url(#sd)"/>
<rect x="20" y="20" width="680" height="360" rx="10" fill="#ffffff"/>
<rect x="20" y="20" width="680" height="44" rx="10" fill="#0f172a"/>
<rect x="20" y="20" width="5" height="44" rx="10 0 0 10" fill="#059669"/>
<circle cx="42" cy="42" r="4.5" fill="#ef4444"/><circle cx="58" cy="42" r="4.5" fill="#eab308"/><circle cx="74" cy="42" r="4.5" fill="#22c55e"/>
<text x="96" y="47" fill="#f1f5f9" font-family="Segoe UI,system-ui,sans-serif" font-size="14" font-weight="600">Finance — Dashboard</text>
<g transform="translate(28 78)">
<rect x="0" y="0" width="160" height="10" rx="3" fill="#64748b"/>
<rect x="0" y="24" width="200" height="72" rx="8" fill="#f8fafc" stroke="#e2e8f0"/>
<text x="12" y="48" fill="#64748b" font-family="Segoe UI,sans-serif" font-size="11">Revenue YTD</text>
<text x="12" y="78" fill="#0f172a" font-family="Segoe UI,sans-serif" font-size="20" font-weight="700">2.4M</text>
<rect x="216" y="24" width="200" height="72" rx="8" fill="#f8fafc" stroke="#e2e8f0"/>
<text x="228" y="48" fill="#64748b" font-family="Segoe UI,sans-serif" font-size="11">Outstanding AP</text>
<text x="228" y="78" fill="#b45309" font-family="Segoe UI,sans-serif" font-size="18" font-weight="700">184K</text>
<rect x="432" y="24" width="232" height="72" rx="8" fill="#f8fafc" stroke="#e2e8f0"/>
<text x="444" y="48" fill="#64748b" font-family="Segoe UI,sans-serif" font-size="11">Cash position</text>
<text x="444" y="78" fill="#059669" font-family="Segoe UI,sans-serif" font-size="18" font-weight="700">+12%</text>
<rect x="0" y="108" width="664" height="160" rx="8" fill="#fff" stroke="#e2e8f0"/>
<polyline fill="none" stroke="#059669" stroke-width="3" points="20,220 80,200 140,210 200,175 260,185 320,160 380,170 440,140 500,150 560,130 620,145"/>
<circle cx="320" cy="160" r="5" fill="#059669"/>
<rect x="0" y="278" width="200" height="9" rx="3" fill="#e2e8f0"/>
</g>
</svg>