<svg xmlns="http://www.w3.org/2000/svg" viewBox="0 0 720 400" width="720" height="400">
<defs>
  <filter id="sd" x="-15%" y="-15%" width="130%" height="130%"><feDropShadow dx="0" dy="10" stdDeviation="14" flood-color="#0f172a" flood-opacity=".22"/></filter>
</defs>
<rect x="12" y="12" width="696" height="376" rx="14" fill="#334155" filter="url(#sd)"/>
<rect x="20" y="20" width="680" height="360" rx="10" fill="#ffffff"/>
<rect x="20" y="20" width="680" height="44" rx="10" fill="#0f172a"/>
<rect x="20" y="20" width="5" height="44" rx="10 0 0 10" fill="#059669"/>
<circle cx="42" cy="42" r="4.5" fill="#ef4444"/><circle cx="58" cy="42" r="4.5" fill="#eab308"/><circle cx="74" cy="42" r="4.5" fill="#22c55e"/>
<text x="96" y="47" fill="#f1f5f9" font-family="Segoe UI,system-ui,sans-serif" font-size="14" font-weight="600">Finance — Ledger</text>
<g transform="translate(28 78)">
<rect x="0" y="0" width="100" height="10" rx="3" fill="#e2e8f0"/>
<rect x="0" y="22" width="664" height="28" rx="4" fill="#0f172a"/>
<text x="12" y="41" fill="#94a3b8" font-family="Segoe UI,sans-serif" font-size="11">Account</text>
<text x="220" y="41" fill="#94a3b8" font-family="Segoe UI,sans-serif" font-size="11">Debit</text>
<text x="360" y="41" fill="#94a3b8" font-family="Segoe UI,sans-serif" font-size="11">Credit</text>
<text x="500" y="41" fill="#94a3b8" font-family="Segoe UI,sans-serif" font-size="11">Balance</text>

<rect x="0" y="54" width="664" height="32" fill="#fff"/>
<rect x="12" y="64" width="160" height="10" rx="3" fill="#e2e8f0"/>
<rect x="220" y="64" width="70" height="10" rx="3" fill="#fecaca"/>
<rect x="360" y="64" width="70" height="10" rx="3" fill="#bbf7d0"/>
<rect x="500" y="64" width="90" height="10" rx="3" fill="#e2e8f0"/>
<rect x="0" y="88" width="664" height="32" fill="#f8fafc"/>
<rect x="12" y="98" width="160" height="10" rx="3" fill="#e2e8f0"/>
<rect x="220" y="98" width="70" height="10" rx="3" fill="#fecaca"/>
<rect x="360" y="98" width="70" height="10" rx="3" fill="#bbf7d0"/>
<rect x="500" y="98" width="90" height="10" rx="3" fill="#e2e8f0"/>
<rect x="0" y="122" width="664" height="32" fill="#fff"/>
<rect x="12" y="132" width="160" height="10" rx="3" fill="#e2e8f0"/>
<rect x="220" y="132" width="70" height="10" rx="3" fill="#fecaca"/>
<rect x="360" y="132" width="70" height="10" rx="3" fill="#bbf7d0"/>
<rect x="500" y="132" width="90" height="10" rx="3" fill="#e2e8f0"/>
<rect x="0" y="156" width="664" height="32" fill="#f8fafc"/>
<rect x="12" y="166" width="160" height="10" rx="3" fill="#e2e8f0"/>
<rect x="220" y="166" width="70" height="10" rx="3" fill="#fecaca"/>
<rect x="360" y="166" width="70" height="10" rx="3" fill="#bbf7d0"/>
<rect x="500" y="166" width="90" height="10" rx="3" fill="#e2e8f0"/>
<rect x="0" y="190" width="664" height="32" fill="#fff"/>
<rect x="12" y="200" width="160" height="10" rx="3" fill="#e2e8f0"/>
<rect x="220" y="200" width="70" height="10" rx="3" fill="#fecaca"/>
<rect x="360" y="200" width="70" height="10" rx="3" fill="#bbf7d0"/>
<rect x="500" y="200" width="90" height="10" rx="3" fill="#e2e8f0"/>
<rect x="0" y="224" width="664" height="32" fill="#f8fafc"/>
<rect x="12" y="234" width="160" height="10" rx="3" fill="#e2e8f0"/>
<rect x="220" y="234" width="70" height="10" rx="3" fill="#fecaca"/>
<rect x="360" y="234" width="70" height="10" rx="3" fill="#bbf7d0"/>
<rect x="500" y="234" width="90" height="10" rx="3" fill="#e2e8f0"/>
</g>
</svg>