<svg xmlns="http://www.w3.org/2000/svg" viewBox="0 0 720 400" width="720" height="400">
<defs>
  <filter id="sd" x="-15%" y="-15%" width="130%" height="130%"><feDropShadow dx="0" dy="10" stdDeviation="14" flood-color="#0f172a" flood-opacity=".22"/></filter>
</defs>
<rect x="12" y="12" width="696" height="376" rx="14" fill="#334155" filter="url(#sd)"/>
<rect x="20" y="20" width="680" height="360" rx="10" fill="#ffffff"/>
<rect x="20" y="20" width="680" height="44" rx="10" fill="#0f172a"/>
<rect x="20" y="20" width="5" height="44" rx="10 0 0 10" fill="#2563eb"/>
<circle cx="42" cy="42" r="4.5" fill="#ef4444"/><circle cx="58" cy="42" r="4.5" fill="#eab308"/><circle cx="74" cy="42" r="4.5" fill="#22c55e"/>
<text x="96" y="47" fill="#f1f5f9" font-family="Segoe UI,system-ui,sans-serif" font-size="14" font-weight="600">HR — Employee directory</text>
<g transform="translate(28 78)">
<rect x="0" y="0" width="180" height="10" rx="3" fill="#64748b"/>
<rect x="190" y="0" width="80" height="10" rx="3" fill="#64748b"/>
<rect x="280" y="0" width="100" height="10" rx="3" fill="#64748b"/>
<rect x="390" y="0" width="90" height="10" rx="3" fill="#64748b"/>

<rect x="0" y="18" width="664" height="38" rx="6" fill="#f8fafc" stroke="#e2e8f0"/>
<circle cx="24" cy="37" r="14" fill="#2563eb" opacity=".35"/>
<rect x="48" y="26" width="140" height="12" rx="3" fill="#e2e8f0"/>
<rect x="200" y="26" width="70" height="12" rx="3" fill="#2563eb"/>
<rect x="290" y="26" width="160" height="12" rx="3" fill="#e2e8f0"/>
<rect x="470" y="28" width="56" height="10" rx="3" fill="#bbf7d0"/>
<rect x="0" y="60" width="664" height="38" rx="6" fill="#f8fafc" stroke="#e2e8f0"/>
<circle cx="24" cy="79" r="14" fill="#2563eb" opacity=".35"/>
<rect x="48" y="68" width="140" height="12" rx="3" fill="#e2e8f0"/>
<rect x="200" y="68" width="70" height="12" rx="3" fill="#2563eb"/>
<rect x="290" y="68" width="160" height="12" rx="3" fill="#e2e8f0"/>
<rect x="470" y="70" width="56" height="10" rx="3" fill="#bbf7d0"/>
<rect x="0" y="102" width="664" height="38" rx="6" fill="#f8fafc" stroke="#e2e8f0"/>
<circle cx="24" cy="121" r="14" fill="#2563eb" opacity=".35"/>
<rect x="48" y="110" width="140" height="12" rx="3" fill="#e2e8f0"/>
<rect x="200" y="110" width="70" height="12" rx="3" fill="#2563eb"/>
<rect x="290" y="110" width="160" height="12" rx="3" fill="#e2e8f0"/>
<rect x="470" y="112" width="56" height="10" rx="3" fill="#bbf7d0"/>
<rect x="0" y="144" width="664" height="38" rx="6" fill="#f8fafc" stroke="#e2e8f0"/>
<circle cx="24" cy="163" r="14" fill="#2563eb" opacity=".35"/>
<rect x="48" y="152" width="140" height="12" rx="3" fill="#e2e8f0"/>
<rect x="200" y="152" width="70" height="12" rx="3" fill="#2563eb"/>
<rect x="290" y="152" width="160" height="12" rx="3" fill="#e2e8f0"/>
<rect x="470" y="154" width="56" height="10" rx="3" fill="#bbf7d0"/>
<rect x="0" y="186" width="664" height="38" rx="6" fill="#f8fafc" stroke="#e2e8f0"/>
<circle cx="24" cy="205" r="14" fill="#2563eb" opacity=".35"/>
<rect x="48" y="194" width="140" height="12" rx="3" fill="#e2e8f0"/>
<rect x="200" y="194" width="70" height="12" rx="3" fill="#2563eb"/>
<rect x="290" y="194" width="160" height="12" rx="3" fill="#e2e8f0"/>
<rect x="470" y="196" width="56" height="10" rx="3" fill="#bbf7d0"/>
<rect x="0" y="228" width="664" height="38" rx="6" fill="#f8fafc" stroke="#e2e8f0"/>
<circle cx="24" cy="247" r="14" fill="#2563eb" opacity=".35"/>
<rect x="48" y="236" width="140" height="12" rx="3" fill="#e2e8f0"/>
<rect x="200" y="236" width="70" height="12" rx="3" fill="#2563eb"/>
<rect x="290" y="236" width="160" height="12" rx="3" fill="#e2e8f0"/>
<rect x="470" y="238" width="56" height="10" rx="3" fill="#bbf7d0"/>
</g>
</svg>