<svg xmlns="http://www.w3.org/2000/svg" viewBox="0 0 720 400" width="720" height="400">
<defs>
  <filter id="sd" x="-15%" y="-15%" width="130%" height="130%"><feDropShadow dx="0" dy="10" stdDeviation="14" flood-color="#0f172a" flood-opacity=".22"/></filter>
</defs>
<rect x="12" y="12" width="696" height="376" rx="14" fill="#334155" filter="url(#sd)"/>
<rect x="20" y="20" width="680" height="360" rx="10" fill="#ffffff"/>
<rect x="20" y="20" width="680" height="44" rx="10" fill="#0f172a"/>
<rect x="20" y="20" width="5" height="44" rx="10 0 0 10" fill="#2563eb"/>
<circle cx="42" cy="42" r="4.5" fill="#ef4444"/><circle cx="58" cy="42" r="4.5" fill="#eab308"/><circle cx="74" cy="42" r="4.5" fill="#22c55e"/>
<text x="96" y="47" fill="#f1f5f9" font-family="Segoe UI,system-ui,sans-serif" font-size="14" font-weight="600">HR — Profile &amp; leave</text>
<g transform="translate(28 78)">
<rect x="0" y="0" width="220" height="240" rx="8" fill="#f1f5f9" stroke="#e2e8f0"/>
<circle cx="110" cy="52" r="36" fill="#2563eb" opacity=".4"/>
<rect x="40" y="100" width="140" height="12" rx="3" fill="#e2e8f0"/>
<rect x="40" y="122" width="100" height="10" rx="3" fill="#e2e8f0"/>
<rect x="40" y="148" width="180" height="10" rx="3" fill="#e2e8f0"/>
<rect x="240" y="0" width="424" height="240" rx="8" fill="#fff" stroke="#e2e8f0"/>
<rect x="260" y="16" width="120" height="12" rx="3" fill="#64748b"/>
<rect x="260" y="40" width="380" height="10" rx="3" fill="#e2e8f0"/>
<rect x="260" y="62" width="300" height="10" rx="3" fill="#e2e8f0"/>
<rect x="260" y="100" width="160" height="36" rx="3" fill="#2563eb"/>
<text x="280" y="124" fill="#fff" font-family="Segoe UI,sans-serif" font-size="12" font-weight="600">Request leave</text>
<rect x="260" y="150" width="380" height="8" rx="3" fill="#e2e8f0"/>
<rect x="260" y="168" width="380" height="8" rx="3" fill="#e2e8f0"/>
<rect x="260" y="186" width="200" height="8" rx="3" fill="#e2e8f0"/>
</g>
</svg>