<svg xmlns="http://www.w3.org/2000/svg" viewBox="0 0 720 400" width="720" height="400">
<defs>
  <filter id="sd" x="-15%" y="-15%" width="130%" height="130%"><feDropShadow dx="0" dy="10" stdDeviation="14" flood-color="#0f172a" flood-opacity=".22"/></filter>
</defs>
<rect x="12" y="12" width="696" height="376" rx="14" fill="#334155" filter="url(#sd)"/>
<rect x="20" y="20" width="680" height="360" rx="10" fill="#ffffff"/>
<rect x="20" y="20" width="680" height="44" rx="10" fill="#0f172a"/>
<rect x="20" y="20" width="5" height="44" rx="10 0 0 10" fill="#0284c7"/>
<circle cx="42" cy="42" r="4.5" fill="#ef4444"/><circle cx="58" cy="42" r="4.5" fill="#eab308"/><circle cx="74" cy="42" r="4.5" fill="#22c55e"/>
<text x="96" y="47" fill="#f1f5f9" font-family="Segoe UI,system-ui,sans-serif" font-size="14" font-weight="600">Integration — Payload</text>
<g transform="translate(28 78)">
<rect x="0" y="0" width="200" height="11" rx="3" fill="#e2e8f0"/>
<rect x="0" y="28" width="664" height="200" rx="8" fill="#0f172a"/>
<text x="16" y="52" fill="#86efac" font-family="monospace" font-size="11">{</text>
<text x="24" y="72" fill="#a5b4fc" font-family="monospace" font-size="11">  "employeeId": "AZ-20481",</text>
<text x="24" y="92" fill="#a5b4fc" font-family="monospace" font-size="11">  "status": "ACTIVE",</text>
<text x="24" y="112" fill="#a5b4fc" font-family="monospace" font-size="11">  "updatedAt": "2026-04-18T08:00:00Z"</text>
<text x="16" y="132" fill="#86efac" font-family="monospace" font-size="11">}</text>
<rect x="0" y="244" width="664" height="48" rx="8" fill="#ecfdf5" stroke="#86efac"/>
<text x="16" y="272" fill="#166534" font-family="Segoe UI,sans-serif" font-size="12" font-weight="600">Schema validation passed — webhook delivered</text>
</g>
</svg>