<svg xmlns="http://www.w3.org/2000/svg" viewBox="0 0 720 400" width="720" height="400">
<defs>
  <filter id="sd" x="-15%" y="-15%" width="130%" height="130%"><feDropShadow dx="0" dy="10" stdDeviation="14" flood-color="#0f172a" flood-opacity=".22"/></filter>
</defs>
<rect x="12" y="12" width="696" height="376" rx="14" fill="#334155" filter="url(#sd)"/>
<rect x="20" y="20" width="680" height="360" rx="10" fill="#ffffff"/>
<rect x="20" y="20" width="680" height="44" rx="10" fill="#0f172a"/>
<rect x="20" y="20" width="5" height="44" rx="10 0 0 10" fill="#7c3aed"/>
<circle cx="42" cy="42" r="4.5" fill="#ef4444"/><circle cx="58" cy="42" r="4.5" fill="#eab308"/><circle cx="74" cy="42" r="4.5" fill="#22c55e"/>
<text x="96" y="47" fill="#f1f5f9" font-family="Segoe UI,system-ui,sans-serif" font-size="14" font-weight="600">Mobile — Notifications</text>
<g transform="translate(28 78)">
<rect x="200" y="8" width="280" height="300" rx="28" fill="#0f172a"/>
<rect x="212" y="24" width="256" height="268" rx="18" fill="#f8fafc"/>

<rect x="220" y="36" width="240" height="56" rx="10" fill="#fff" stroke="#e2e8f0"/>
<rect x="232" y="48" width="36" height="36" rx="8" fill="#7c3aed" opacity=".35"/>
<rect x="278" y="46" width="160" height="10" rx="3" fill="#e2e8f0"/>
<rect x="278" y="62" width="120" height="8" rx="3" fill="#cbd5e1"/>
<rect x="220" y="100" width="240" height="56" rx="10" fill="#fff" stroke="#e2e8f0"/>
<rect x="232" y="112" width="36" height="36" rx="8" fill="#7c3aed" opacity=".35"/>
<rect x="278" y="110" width="160" height="10" rx="3" fill="#e2e8f0"/>
<rect x="278" y="126" width="120" height="8" rx="3" fill="#cbd5e1"/>
<rect x="220" y="164" width="240" height="56" rx="10" fill="#fff" stroke="#e2e8f0"/>
<rect x="232" y="176" width="36" height="36" rx="8" fill="#7c3aed" opacity=".35"/>
<rect x="278" y="174" width="160" height="10" rx="3" fill="#e2e8f0"/>
<rect x="278" y="190" width="120" height="8" rx="3" fill="#cbd5e1"/>
<rect x="220" y="228" width="240" height="56" rx="10" fill="#fff" stroke="#e2e8f0"/>
<rect x="232" y="240" width="36" height="36" rx="8" fill="#7c3aed" opacity=".35"/>
<rect x="278" y="238" width="160" height="10" rx="3" fill="#e2e8f0"/>
<rect x="278" y="254" width="120" height="8" rx="3" fill="#cbd5e1"/>
</g>
</svg>