<svg xmlns="http://www.w3.org/2000/svg" viewBox="0 0 720 400" width="720" height="400">
<defs>
  <filter id="sd" x="-15%" y="-15%" width="130%" height="130%"><feDropShadow dx="0" dy="10" stdDeviation="14" flood-color="#0f172a" flood-opacity=".22"/></filter>
</defs>
<rect x="12" y="12" width="696" height="376" rx="14" fill="#334155" filter="url(#sd)"/>
<rect x="20" y="20" width="680" height="360" rx="10" fill="#ffffff"/>
<rect x="20" y="20" width="680" height="44" rx="10" fill="#0f172a"/>
<rect x="20" y="20" width="5" height="44" rx="10 0 0 10" fill="#7c3aed"/>
<circle cx="42" cy="42" r="4.5" fill="#ef4444"/><circle cx="58" cy="42" r="4.5" fill="#eab308"/><circle cx="74" cy="42" r="4.5" fill="#22c55e"/>
<text x="96" y="47" fill="#f1f5f9" font-family="Segoe UI,system-ui,sans-serif" font-size="14" font-weight="600">Mobile — App shell</text>
<g transform="translate(28 78)">
<rect x="200" y="8" width="280" height="300" rx="28" fill="#0f172a"/>
<rect x="212" y="24" width="256" height="268" rx="18" fill="#f8fafc"/>
<rect x="228" y="36" width="224" height="36" rx="8" fill="#fff" stroke="#e2e8f0"/>
<text x="240" y="58" fill="#0f172a" font-family="Segoe UI,sans-serif" font-size="13" font-weight="700">Dashboard</text>
<rect x="228" y="84" width="224" height="44" rx="3" fill="#fff"/><rect x="228" y="136" width="224" height="44" rx="3" fill="#fff"/><rect x="228" y="188" width="224" height="44" rx="3" fill="#fff"/><rect x="228" y="240" width="224" height="44" rx="3" fill="#fff"/>
<rect x="268" y="310" width="144" height="5" rx="3" fill="#475569"/>
</g>
</svg>