<svg xmlns="http://www.w3.org/2000/svg" viewBox="0 0 720 400" width="720" height="400">
<defs>
  <filter id="sd" x="-15%" y="-15%" width="130%" height="130%"><feDropShadow dx="0" dy="10" stdDeviation="14" flood-color="#0f172a" flood-opacity=".22"/></filter>
</defs>
<rect x="12" y="12" width="696" height="376" rx="14" fill="#334155" filter="url(#sd)"/>
<rect x="20" y="20" width="680" height="360" rx="10" fill="#ffffff"/>
<rect x="20" y="20" width="680" height="44" rx="10" fill="#0f172a"/>
<rect x="20" y="20" width="5" height="44" rx="10 0 0 10" fill="#e11d48"/>
<circle cx="42" cy="42" r="4.5" fill="#ef4444"/><circle cx="58" cy="42" r="4.5" fill="#eab308"/><circle cx="74" cy="42" r="4.5" fill="#22c55e"/>
<text x="96" y="47" fill="#f1f5f9" font-family="Segoe UI,system-ui,sans-serif" font-size="14" font-weight="600">Procurement — Requests</text>
<g transform="translate(28 78)">
<rect x="0" y="0" width="200" height="11" rx="3" fill="#e2e8f0"/>

<rect x="0" y="20" width="664" height="44" rx="8" fill="#fff" stroke="#e2e8f0"/>
<rect x="16" y="32" width="180" height="10" rx="3" fill="#e2e8f0"/>
<rect x="520" y="30" width="120" height="24" rx="12" fill="#fef3c7"/>
<text x="548" y="46" fill="#0f172a" font-family="Segoe UI,sans-serif" font-size="10" font-weight="600">Pending</text>
<rect x="0" y="68" width="664" height="44" rx="8" fill="#fff" stroke="#e2e8f0"/>
<rect x="16" y="80" width="180" height="10" rx="3" fill="#e2e8f0"/>
<rect x="520" y="78" width="120" height="24" rx="12" fill="#dcfce7"/>
<text x="548" y="94" fill="#0f172a" font-family="Segoe UI,sans-serif" font-size="10" font-weight="600">Approved</text>
<rect x="0" y="116" width="664" height="44" rx="8" fill="#fff" stroke="#e2e8f0"/>
<rect x="16" y="128" width="180" height="10" rx="3" fill="#e2e8f0"/>
<rect x="520" y="126" width="120" height="24" rx="12" fill="#e2e8f0"/>
<text x="548" y="142" fill="#0f172a" font-family="Segoe UI,sans-serif" font-size="10" font-weight="600">Draft</text>
<rect x="0" y="164" width="664" height="44" rx="8" fill="#fff" stroke="#e2e8f0"/>
<rect x="16" y="176" width="180" height="10" rx="3" fill="#e2e8f0"/>
<rect x="520" y="174" width="120" height="24" rx="12" fill="#e2e8f0"/>
<text x="548" y="190" fill="#0f172a" font-family="Segoe UI,sans-serif" font-size="10" font-weight="600">Draft</text>
<rect x="0" y="212" width="664" height="44" rx="8" fill="#fff" stroke="#e2e8f0"/>
<rect x="16" y="224" width="180" height="10" rx="3" fill="#e2e8f0"/>
<rect x="520" y="222" width="120" height="24" rx="12" fill="#e2e8f0"/>
<text x="548" y="238" fill="#0f172a" font-family="Segoe UI,sans-serif" font-size="10" font-weight="600">Draft</text>
</g>
</svg>