<svg xmlns="http://www.w3.org/2000/svg" viewBox="0 0 720 400" width="720" height="400">
<defs>
  <filter id="sd" x="-15%" y="-15%" width="130%" height="130%"><feDropShadow dx="0" dy="10" stdDeviation="14" flood-color="#0f172a" flood-opacity=".22"/></filter>
</defs>
<rect x="12" y="12" width="696" height="376" rx="14" fill="#334155" filter="url(#sd)"/>
<rect x="20" y="20" width="680" height="360" rx="10" fill="#ffffff"/>
<rect x="20" y="20" width="680" height="44" rx="10" fill="#0f172a"/>
<rect x="20" y="20" width="5" height="44" rx="10 0 0 10" fill="#e11d48"/>
<circle cx="42" cy="42" r="4.5" fill="#ef4444"/><circle cx="58" cy="42" r="4.5" fill="#eab308"/><circle cx="74" cy="42" r="4.5" fill="#22c55e"/>
<text x="96" y="47" fill="#f1f5f9" font-family="Segoe UI,system-ui,sans-serif" font-size="14" font-weight="600">Procurement — Contract</text>
<g transform="translate(28 78)">
<rect x="0" y="0" width="664" height="36" rx="6" fill="#f1f5f9"/>
<rect x="12" y="10" width="200" height="12" rx="3" fill="#e2e8f0"/>
<rect x="520" y="8" width="120" height="22" rx="6" fill="#e11d48"/>
<text x="538" y="23" fill="#fff" font-family="Segoe UI,sans-serif" font-size="10" font-weight="600">Sign</text>
<rect x="0" y="48" width="664" height="8" rx="3" fill="#e2e8f0"/><rect x="0" y="74" width="664" height="8" rx="3" fill="#e2e8f0"/><rect x="0" y="100" width="664" height="8" rx="3" fill="#e2e8f0"/><rect x="0" y="126" width="664" height="8" rx="3" fill="#e2e8f0"/><rect x="0" y="152" width="664" height="8" rx="3" fill="#e2e8f0"/><rect x="0" y="178" width="664" height="8" rx="3" fill="#e2e8f0"/><rect x="0" y="204" width="664" height="8" rx="3" fill="#e2e8f0"/><rect x="0" y="230" width="664" height="8" rx="3" fill="#e2e8f0"/>
<rect x="0" y="240" width="320" height="36" rx="6" fill="#fff" stroke="#e2e8f0"/>
<rect x="12" y="252" width="120" height="10" rx="3" fill="#e2e8f0"/>
<rect x="360" y="240" width="304" height="36" rx="6" fill="#fff" stroke="#e2e8f0"/>
<rect x="372" y="252" width="140" height="10" rx="3" fill="#e2e8f0"/>
</g>
</svg>