<svg xmlns="http://www.w3.org/2000/svg" viewBox="0 0 720 400" width="720" height="400">
<defs>
  <filter id="sd" x="-15%" y="-15%" width="130%" height="130%"><feDropShadow dx="0" dy="10" stdDeviation="14" flood-color="#0f172a" flood-opacity=".22"/></filter>
</defs>
<rect x="12" y="12" width="696" height="376" rx="14" fill="#334155" filter="url(#sd)"/>
<rect x="20" y="20" width="680" height="360" rx="10" fill="#ffffff"/>
<rect x="20" y="20" width="680" height="44" rx="10" fill="#0f172a"/>
<rect x="20" y="20" width="5" height="44" rx="10 0 0 10" fill="#db2777"/>
<circle cx="42" cy="42" r="4.5" fill="#ef4444"/><circle cx="58" cy="42" r="4.5" fill="#eab308"/><circle cx="74" cy="42" r="4.5" fill="#22c55e"/>
<text x="96" y="47" fill="#f1f5f9" font-family="Segoe UI,system-ui,sans-serif" font-size="14" font-weight="600">Self-service — Portal</text>
<g transform="translate(28 78)">
<text x="0" y="14" fill="#64748b" font-family="Segoe UI,sans-serif" font-size="12">Quick actions</text>
<rect x="0" y="28" width="210" height="100" rx="10" fill="#fff" stroke="#e2e8f0"/>
<rect x="16" y="44" width="40" height="40" rx="8" fill="#db2777" opacity=".3"/>
<rect x="68" y="50" width="120" height="10" rx="3" fill="#e2e8f0"/>
<rect x="68" y="68" width="90" height="8" rx="3" fill="#e2e8f0"/>
<rect x="226" y="28" width="210" height="100" rx="10" fill="#fff" stroke="#e2e8f0"/>
<rect x="242" y="44" width="40" height="40" rx="8" fill="#db2777" opacity=".3"/>
<rect x="294" y="50" width="120" height="10" rx="3" fill="#e2e8f0"/>
<rect x="294" y="68" width="100" height="8" rx="3" fill="#e2e8f0"/>
<rect x="452" y="28" width="212" height="100" rx="10" fill="#fff" stroke="#e2e8f0"/>
<rect x="468" y="44" width="40" height="40" rx="8" fill="#db2777" opacity=".3"/>
<rect x="520" y="50" width="120" height="10" rx="3" fill="#e2e8f0"/>
<rect x="520" y="68" width="80" height="8" rx="3" fill="#e2e8f0"/>
<rect x="0" y="144" width="664" height="120" rx="10" fill="#f8fafc" stroke="#e2e8f0"/>
<rect x="16" y="160" width="200" height="11" rx="3" fill="#e2e8f0"/>
<rect x="16" y="186" width="620" height="10" rx="3" fill="#e2e8f0"/>
<rect x="16" y="206" width="500" height="8" rx="3" fill="#e2e8f0"/>
<rect x="16" y="224" width="560" height="8" rx="3" fill="#e2e8f0"/>
</g>
</svg>