<svg xmlns="http://www.w3.org/2000/svg" viewBox="0 0 720 400" width="720" height="400">
<defs>
  <filter id="sd" x="-15%" y="-15%" width="130%" height="130%"><feDropShadow dx="0" dy="10" stdDeviation="14" flood-color="#0f172a" flood-opacity=".22"/></filter>
</defs>
<rect x="12" y="12" width="696" height="376" rx="14" fill="#334155" filter="url(#sd)"/>
<rect x="20" y="20" width="680" height="360" rx="10" fill="#ffffff"/>
<rect x="20" y="20" width="680" height="44" rx="10" fill="#0f172a"/>
<rect x="20" y="20" width="5" height="44" rx="10 0 0 10" fill="#db2777"/>
<circle cx="42" cy="42" r="4.5" fill="#ef4444"/><circle cx="58" cy="42" r="4.5" fill="#eab308"/><circle cx="74" cy="42" r="4.5" fill="#22c55e"/>
<text x="96" y="47" fill="#f1f5f9" font-family="Segoe UI,system-ui,sans-serif" font-size="14" font-weight="600">Self-service — Form</text>
<g transform="translate(28 78)">
<rect x="0" y="0" width="180" height="11" rx="3" fill="#e2e8f0"/>

<text x="0" y="32" fill="#64748b" font-family="Segoe UI,sans-serif" font-size="11">Employee ID</text>
<rect x="0" y="38" width="400" height="36" rx="6" fill="#fff" stroke="#cbd5e1"/>
<text x="0" y="88" fill="#64748b" font-family="Segoe UI,sans-serif" font-size="11">Start date</text>
<rect x="0" y="94" width="400" height="36" rx="6" fill="#fff" stroke="#cbd5e1"/>
<text x="0" y="144" fill="#64748b" font-family="Segoe UI,sans-serif" font-size="11">End date</text>
<rect x="0" y="150" width="400" height="36" rx="6" fill="#fff" stroke="#cbd5e1"/>
<text x="0" y="200" fill="#64748b" font-family="Segoe UI,sans-serif" font-size="11">Reason</text>
<rect x="0" y="206" width="400" height="36" rx="6" fill="#fff" stroke="#cbd5e1"/>
<rect x="0" y="260" width="160" height="40" rx="8" fill="#db2777"/>
<text x="48" y="285" fill="#fff" font-family="Segoe UI,sans-serif" font-size="13" font-weight="600">Submit</text>
</g>
</svg>