<svg xmlns="http://www.w3.org/2000/svg" viewBox="0 0 640 360"><defs><linearGradient id="g" x1="1" y1="0" x2="0" y2="1"><stop stop-color="#eab308"/><stop offset="1" stop-color="#a16207"/></linearGradient></defs><rect width="640" height="360" rx="14" fill="url(#g)"/><circle cx="72" cy="68" r="22" fill="#fff" opacity=".22"/><circle cx="152" cy="68" r="22" fill="#fff" opacity=".22"/><circle cx="232" cy="68" r="22" fill="#fff" opacity=".22"/><circle cx="312" cy="68" r="22" fill="#fff" opacity=".22"/><circle cx="392" cy="68" r="22" fill="#fff" opacity=".22"/><circle cx="472" cy="68" r="22" fill="#fff" opacity=".22"/><circle cx="552" cy="68" r="22" fill="#fff" opacity=".22"/><circle cx="72" cy="140" r="22" fill="#fff" opacity=".22"/><circle cx="152" cy="140" r="22" fill="#fff" opacity=".22"/><circle cx="232" cy="140" r="22" fill="#fff" opacity=".22"/><circle cx="312" cy="140" r="22" fill="#fff" opacity=".22"/><circle cx="392" cy="140" r="22" fill="#fff" opacity=".22"/><circle cx="472" cy="140" r="22" fill="#fff" opacity=".22"/><circle cx="552" cy="140" r="22" fill="#fff" opacity=".22"/><circle cx="72" cy="212" r="22" fill="#fff" opacity=".22"/><circle cx="152" cy="212" r="22" fill="#fff" opacity=".22"/><circle cx="232" cy="212" r="22" fill="#fff" opacity=".22"/><circle cx="312" cy="212" r="22" fill="#fff" opacity=".22"/><circle cx="392" cy="212" r="22" fill="#fff" opacity=".22"/><circle cx="472" cy="212" r="22" fill="#fff" opacity=".22"/><circle cx="552" cy="212" r="22" fill="#fff" opacity=".22"/><circle cx="72" cy="284" r="22" fill="#fff" opacity=".22"/><circle cx="152" cy="284" r="22" fill="#fff" opacity=".22"/><circle cx="232" cy="284" r="22" fill="#fff" opacity=".22"/><circle cx="312" cy="284" r="22" fill="#fff" opacity=".22"/><circle cx="392" cy="284" r="22" fill="#fff" opacity=".22"/><circle cx="472" cy="284" r="22" fill="#fff" opacity=".22"/><circle cx="552" cy="284" r="22" fill="#fff" opacity=".22"/><rect x="180" y="240" width="280" height="56" rx="12" fill="#fff" opacity=".28"/></svg>