<svg xmlns="http://www.w3.org/2000/svg" viewBox="0 0 720 400" width="720" height="400">
<defs>
  <filter id="sd" x="-15%" y="-15%" width="130%" height="130%"><feDropShadow dx="0" dy="10" stdDeviation="14" flood-color="#0f172a" flood-opacity=".22"/></filter>
</defs>
<rect x="12" y="12" width="696" height="376" rx="14" fill="#334155" filter="url(#sd)"/>
<rect x="20" y="20" width="680" height="360" rx="10" fill="#ffffff"/>
<rect x="20" y="20" width="680" height="44" rx="10" fill="#0f172a"/>
<rect x="20" y="20" width="5" height="44" rx="10 0 0 10" fill="#ca8a04"/>
<circle cx="42" cy="42" r="4.5" fill="#ef4444"/><circle cx="58" cy="42" r="4.5" fill="#eab308"/><circle cx="74" cy="42" r="4.5" fill="#22c55e"/>
<text x="96" y="47" fill="#f1f5f9" font-family="Segoe UI,system-ui,sans-serif" font-size="14" font-weight="600">Warehouse — GRN</text>
<g transform="translate(28 78)">
<rect x="0" y="0" width="240" height="11" rx="3" fill="#e2e8f0"/>
<rect x="0" y="28" width="320" height="220" rx="8" fill="#f8fafc" stroke="#e2e8f0"/>
<text x="12" y="52" fill="#64748b" font-family="Segoe UI,sans-serif" font-size="11">Receive lines</text>
<rect x="12" y="62" width="280" height="10" rx="3" fill="#e2e8f0"/><rect x="12" y="98" width="280" height="10" rx="3" fill="#e2e8f0"/><rect x="12" y="134" width="280" height="10" rx="3" fill="#e2e8f0"/><rect x="12" y="170" width="280" height="10" rx="3" fill="#e2e8f0"/><rect x="12" y="206" width="280" height="10" rx="3" fill="#e2e8f0"/>
<rect x="340" y="28" width="324" height="220" rx="8" fill="#fff" stroke="#e2e8f0"/>
<rect x="360" y="48" width="200" height="120" rx="4" fill="#f1f5f9"/>
<text x="372" y="100" fill="#94a3b8" font-family="Segoe UI,sans-serif" font-size="11">Scan barcode</text>
<line x1="380" y1="130" x2="520" y2="130" stroke="#0f172a" stroke-width="2"/>
<rect x="360" y="180" width="140" height="36" rx="8" fill="#ca8a04"/>
<text x="395" y="203" fill="#fff" font-family="Segoe UI,sans-serif" font-size="12" font-weight="600">Confirm</text>
</g>
</svg>