<svg xmlns="http://www.w3.org/2000/svg" viewBox="0 0 720 400" width="720" height="400">
<defs>
  <filter id="sd" x="-15%" y="-15%" width="130%" height="130%"><feDropShadow dx="0" dy="10" stdDeviation="14" flood-color="#0f172a" flood-opacity=".22"/></filter>
</defs>
<rect x="12" y="12" width="696" height="376" rx="14" fill="#334155" filter="url(#sd)"/>
<rect x="20" y="20" width="680" height="360" rx="10" fill="#ffffff"/>
<rect x="20" y="20" width="680" height="44" rx="10" fill="#0f172a"/>
<rect x="20" y="20" width="5" height="44" rx="10 0 0 10" fill="#ca8a04"/>
<circle cx="42" cy="42" r="4.5" fill="#ef4444"/><circle cx="58" cy="42" r="4.5" fill="#eab308"/><circle cx="74" cy="42" r="4.5" fill="#22c55e"/>
<text x="96" y="47" fill="#f1f5f9" font-family="Segoe UI,system-ui,sans-serif" font-size="14" font-weight="600">Warehouse — Stock</text>
<g transform="translate(28 78)">
<rect x="0" y="0" width="664" height="32" rx="6" fill="#fef9c3" stroke="#fde047"/>
<text x="12" y="21" fill="#854d0e" font-family="Segoe UI,sans-serif" font-size="12" font-weight="600">Low stock: 3 SKUs below minimum</text>
<rect x="0" y="40" width="664" height="28" rx="4" fill="#0f172a"/>
<text x="10" y="58" fill="#94a3b8" font-family="Segoe UI,sans-serif" font-size="11">SKU</text>
<text x="180" y="58" fill="#94a3b8" font-family="Segoe UI,sans-serif" font-size="11">Location</text>
<text x="360" y="58" fill="#94a3b8" font-family="Segoe UI,sans-serif" font-size="11">Qty</text>
<text x="480" y="58" fill="#94a3b8" font-family="Segoe UI,sans-serif" font-size="11">Status</text>

<rect x="0" y="74" width="664" height="32" fill="#fff"/>
<rect x="10" y="84" width="140" height="10" rx="3" fill="#e2e8f0"/>
<rect x="180" y="84" width="140" height="10" rx="3" fill="#e2e8f0"/>
<rect x="360" y="84" width="50" height="10" rx="3" fill="#e2e8f0"/>
<rect x="480" y="84" width="70" height="10" rx="3" fill="#dcfce7"/>
<rect x="0" y="108" width="664" height="32" fill="#f8fafc"/>
<rect x="10" y="118" width="140" height="10" rx="3" fill="#e2e8f0"/>
<rect x="180" y="118" width="140" height="10" rx="3" fill="#e2e8f0"/>
<rect x="360" y="118" width="50" height="10" rx="3" fill="#e2e8f0"/>
<rect x="480" y="118" width="70" height="10" rx="3" fill="#dcfce7"/>
<rect x="0" y="142" width="664" height="32" fill="#fef2f2"/>
<rect x="10" y="152" width="140" height="10" rx="3" fill="#e2e8f0"/>
<rect x="180" y="152" width="140" height="10" rx="3" fill="#e2e8f0"/>
<rect x="360" y="152" width="50" height="10" rx="3" fill="#e2e8f0"/>
<rect x="480" y="152" width="70" height="10" rx="3" fill="#fecaca"/>
<rect x="0" y="176" width="664" height="32" fill="#f8fafc"/>
<rect x="10" y="186" width="140" height="10" rx="3" fill="#e2e8f0"/>
<rect x="180" y="186" width="140" height="10" rx="3" fill="#e2e8f0"/>
<rect x="360" y="186" width="50" height="10" rx="3" fill="#e2e8f0"/>
<rect x="480" y="186" width="70" height="10" rx="3" fill="#dcfce7"/>
<rect x="0" y="210" width="664" height="32" fill="#fff"/>
<rect x="10" y="220" width="140" height="10" rx="3" fill="#e2e8f0"/>
<rect x="180" y="220" width="140" height="10" rx="3" fill="#e2e8f0"/>
<rect x="360" y="220" width="50" height="10" rx="3" fill="#e2e8f0"/>
<rect x="480" y="220" width="70" height="10" rx="3" fill="#dcfce7"/>
<rect x="0" y="244" width="664" height="32" fill="#f8fafc"/>
<rect x="10" y="254" width="140" height="10" rx="3" fill="#e2e8f0"/>
<rect x="180" y="254" width="140" height="10" rx="3" fill="#e2e8f0"/>
<rect x="360" y="254" width="50" height="10" rx="3" fill="#e2e8f0"/>
<rect x="480" y="254" width="70" height="10" rx="3" fill="#dcfce7"/>
</g>
</svg>